<?xml version="1.0" standalone="no"?>
<!DOCTYPE svg PUBLIC "-//W3C//DTD SVG 20010904//EN"
 "http://www.w3.org/TR/2001/REC-SVG-20010904/DTD/svg10.dtd">
<svg version="1.0" xmlns="http://www.w3.org/2000/svg"
 width="1257.000000pt" height="1257.000000pt" viewBox="0 0 1257.000000 1257.000000"
 preserveAspectRatio="xMidYMid meet">
<metadata>
Created by potrace 1.14, written by Peter Selinger 2001-2017
</metadata>
<g transform="translate(0.000000,1257.000000) scale(0.100000,-0.100000)"
fill="#000000" stroke="none">
<path d="M6332 12338 c2 -7 -7 -14 -19 -16 -13 -2 -23 -11 -23 -20 0 -15 -2
-15 -10 -2 -6 10 -10 11 -10 3 0 -7 -9 -13 -20 -13 -11 0 -20 -7 -20 -15 0 -8
-5 -15 -11 -15 -5 0 -8 4 -4 9 3 5 0 13 -6 17 -8 4 -9 3 -5 -5 8 -12 -32 -33
-47 -24 -4 2 -10 -3 -13 -11 -4 -10 -19 -16 -41 -16 -20 0 -32 -4 -28 -10 4
-6 10 -8 14 -6 4 3 8 -1 8 -9 0 -11 -4 -12 -14 -4 -9 8 -13 8 -13 0 0 -6 -9
-11 -19 -11 -28 0 -52 -11 -45 -21 3 -5 -9 -9 -25 -9 -21 0 -31 -5 -31 -15 0
-10 -11 -16 -32 -17 -58 -2 -63 -4 -60 -16 1 -7 -9 -12 -24 -12 -21 0 -25 -4
-20 -17 5 -15 4 -15 -9 1 -13 17 -15 18 -15 3 0 -10 -8 -17 -20 -17 -14 0 -18
-5 -13 -17 5 -15 3 -14 -10 2 -15 18 -16 18 -17 3 0 -17 -16 -23 -47 -19 -7 1
-13 -5 -13 -13 0 -8 -8 -15 -17 -15 -42 -1 -53 -5 -53 -18 0 -8 -12 -13 -30
-13 -27 0 -35 -9 -31 -34 1 -5 -6 -3 -15 5 -12 9 -15 9 -10 2 5 -9 -1 -13 -19
-13 -20 0 -26 -4 -21 -15 3 -8 2 -14 -2 -14 -34 5 -82 -3 -79 -13 1 -8 -12
-14 -35 -16 -26 -2 -38 -8 -38 -18 0 -8 -6 -14 -12 -12 -21 3 -59 -13 -53 -23
4 -5 -8 -9 -24 -9 -23 0 -31 -5 -32 -17 0 -15 -2 -15 -9 2 -5 11 -9 14 -9 7
-1 -7 -13 -17 -27 -22 -14 -6 -23 -14 -20 -19 3 -5 0 -9 -7 -8 -41 1 -67 -4
-62 -13 3 -5 2 -10 -4 -10 -5 0 -12 6 -14 13 -3 7 -6 5 -6 -5 -1 -17 -17 -23
-49 -19 -7 1 -12 -2 -11 -6 4 -21 -3 -29 -28 -31 -15 -1 -31 -9 -36 -17 -4 -9
-22 -15 -42 -15 -19 0 -37 -5 -41 -12 -4 -6 -3 -8 4 -4 6 3 13 3 16 -2 2 -4
-5 -8 -17 -9 -50 -2 -75 -8 -71 -15 3 -5 11 -5 17 -2 7 4 8 3 4 -2 -9 -9 -14
-11 -48 -13 -11 0 -18 -5 -14 -10 3 -5 0 -13 -6 -17 -7 -4 -9 -3 -5 4 3 6 2
13 -4 17 -5 3 -10 -1 -10 -9 0 -10 -9 -16 -25 -16 -14 0 -28 -7 -31 -15 -4 -9
-19 -15 -40 -15 -24 0 -34 -5 -34 -15 0 -10 -10 -15 -29 -15 -16 0 -31 -6 -35
-15 -3 -8 -16 -15 -29 -15 -15 0 -28 -9 -36 -22 l-11 -23 6 23 c3 12 1 22 -5
22 -6 0 -10 -3 -10 -7 4 -23 -3 -33 -21 -33 -11 0 -19 -5 -18 -12 2 -7 -11
-13 -31 -15 -19 -2 -45 -10 -57 -18 -13 -8 -32 -15 -43 -15 -10 0 -21 -7 -25
-15 -3 -8 -17 -15 -31 -15 -16 0 -25 -6 -25 -15 0 -11 -11 -15 -39 -15 -22 0
-46 -7 -55 -15 -8 -8 -19 -15 -25 -15 -5 0 -15 -8 -21 -17 -11 -17 -11 -17 -6
0 3 9 1 17 -4 17 -6 0 -10 -7 -10 -15 0 -10 -10 -15 -30 -15 -20 0 -30 -5 -30
-15 0 -9 -6 -15 -12 -14 -34 4 -48 -2 -48 -22 0 -13 -6 -20 -17 -18 -41 4 -62
-1 -57 -14 4 -11 -14 -16 -73 -20 -7 0 -10 -4 -7 -9 3 -5 11 -5 17 -2 7 4 8 3
4 -2 -10 -10 -14 -11 -57 -13 -16 0 -30 -5 -30 -11 0 -5 7 -7 15 -4 8 4 15 2
15 -3 0 -5 -17 -10 -37 -11 -21 -2 -41 -8 -45 -15 -6 -9 -8 -9 -8 1 0 6 -4 12
-10 12 -5 0 -7 -6 -4 -13 3 -8 -4 -13 -17 -14 -12 -1 -29 -9 -38 -17 -9 -9
-31 -16 -49 -18 -32 -2 -42 -13 -19 -21 6 -2 -4 -5 -23 -6 -57 -3 -59 -4 -54
-13 3 -5 10 -5 16 -2 6 4 8 3 5 -2 -3 -6 -22 -11 -43 -12 -35 -3 -84 -21 -56
-22 6 0 12 -4 12 -10 0 -5 -15 -10 -34 -10 -19 0 -38 -5 -42 -12 -5 -7 -2 -8
7 -3 10 6 11 5 3 -4 -6 -7 -24 -13 -40 -15 -16 -2 -33 -4 -39 -5 -5 -1 -3 -6
5 -11 11 -7 7 -10 -17 -10 -22 0 -33 -5 -33 -14 0 -9 -10 -15 -27 -15 -38 0
-61 -5 -70 -16 -4 -4 -3 -5 4 -1 6 3 15 2 18 -4 4 -6 3 -10 -2 -9 -28 5 -83
-3 -83 -12 0 -5 6 -7 13 -3 7 4 9 3 4 -2 -9 -9 -13 -10 -43 -13 -11 -1 -14 -7
-10 -18 5 -15 4 -15 -9 1 -13 18 -20 15 -16 -6 0 -5 -15 -8 -34 -8 -24 0 -35
-5 -35 -15 0 -18 -16 -20 -23 -2 -4 10 -6 10 -6 0 -1 -7 -8 -13 -16 -13 -8 0
-15 -5 -15 -11 0 -8 -5 -8 -15 1 -21 17 -19 5 2 -16 16 -16 16 -17 2 -12 -9 4
-27 -1 -40 -10 -24 -17 -34 -20 -76 -24 -13 -1 -23 -8 -23 -15 0 -8 -13 -13
-35 -13 -24 0 -35 -5 -35 -15 0 -10 -10 -15 -30 -15 -18 0 -30 -5 -30 -13 0
-11 -19 -16 -67 -20 -8 0 -9 -4 -3 -12 9 -11 -10 -16 -67 -18 -13 -1 -23 -5
-23 -10 0 -5 7 -7 15 -4 8 4 16 3 19 -1 3 -5 -12 -9 -32 -10 -50 -3 -74 -11
-67 -23 4 -5 -9 -9 -27 -9 -25 0 -29 -3 -18 -10 13 -8 12 -10 -3 -10 -10 0
-15 -4 -12 -10 4 -6 -7 -10 -24 -10 -21 0 -31 -5 -31 -15 0 -8 -4 -15 -10 -15
-5 0 -10 6 -10 13 0 9 -2 9 -8 0 -4 -7 -22 -13 -39 -15 -20 -1 -29 -6 -26 -15
5 -11 -28 -19 -60 -14 -4 0 -7 -4 -7 -10 0 -6 7 -8 16 -5 8 3 12 2 9 -4 -3 -6
-19 -10 -35 -10 -36 0 -61 -10 -54 -21 4 -8 -26 -14 -49 -10 -5 1 -6 -3 -3 -8
7 -11 -17 -21 -50 -21 -15 0 -24 -6 -24 -15 0 -13 -41 -22 -74 -16 -5 1 -3 -6
5 -15 12 -15 12 -17 -1 -12 -21 8 -55 -6 -55 -23 0 -8 -13 -16 -30 -19 -16 -4
-29 -11 -28 -16 1 -6 -5 -11 -12 -11 -11 0 -12 4 -4 14 9 9 8 13 0 13 -6 0
-14 -7 -17 -15 -4 -9 -19 -15 -35 -15 -19 0 -29 -5 -29 -15 0 -11 -11 -15 -36
-15 -27 0 -35 -4 -31 -14 4 -11 -3 -16 -26 -18 -19 -2 -31 -8 -30 -15 3 -13
-4 -15 -64 -15 -18 0 -30 -5 -27 -9 3 -5 11 -6 17 -3 7 4 8 3 4 -2 -10 -10
-14 -11 -58 -13 -18 0 -28 -5 -24 -11 4 -6 12 -7 18 -4 7 4 8 3 4 -2 -10 -10
-14 -11 -57 -13 -18 -1 -29 -6 -27 -13 1 -8 -11 -14 -28 -16 -16 -2 -34 -8
-40 -14 -7 -8 -6 -9 2 -4 9 5 11 2 7 -8 -3 -9 -9 -15 -12 -14 -33 4 -62 -4
-62 -18 0 -8 -5 -12 -10 -9 -6 4 -7 11 -4 17 4 7 2 8 -5 4 -6 -4 -9 -12 -6
-17 4 -5 -3 -9 -14 -9 -12 0 -21 -7 -21 -16 0 -8 -5 -12 -10 -9 -6 4 -7 11 -4
17 4 7 2 8 -5 4 -6 -4 -9 -12 -6 -17 5 -8 -33 -14 -59 -10 -5 1 -6 -6 -2 -15
4 -12 2 -15 -9 -11 -8 4 -17 2 -21 -4 -3 -5 -14 -7 -25 -4 -13 4 -19 2 -19 -9
0 -12 -10 -16 -37 -16 -32 0 -35 -2 -20 -12 15 -11 13 -13 -19 -16 -20 -1 -42
-9 -48 -17 -6 -8 -26 -16 -44 -17 -19 -1 -36 -7 -39 -12 -3 -5 -1 -6 5 -2 6 3
13 3 16 -2 4 -7 -24 -13 -76 -15 -10 -1 -18 -7 -18 -15 0 -7 4 -11 9 -7 5 3
12 1 15 -4 4 -5 -5 -8 -19 -6 -14 1 -28 -1 -30 -5 -3 -4 -5 -195 -6 -424 -1
-305 -4 -414 -13 -409 -8 5 -8 3 0 -8 9 -10 12 -140 12 -458 -1 -379 -3 -442
-14 -426 -8 10 -14 14 -14 8 0 -6 7 -16 15 -23 16 -13 21 -65 6 -55 -5 3 -13
1 -16 -5 -4 -6 -1 -9 6 -8 7 2 14 -11 16 -34 4 -33 2 -37 -14 -32 -17 5 -17 5
0 -6 22 -14 22 -49 0 -65 -13 -9 -13 -14 -3 -20 9 -5 11 -4 6 3 -4 7 -3 12 3
12 5 0 9 -19 8 -42 -1 -30 -6 -42 -15 -40 -8 1 -11 -2 -7 -8 3 -6 10 -8 15 -5
4 3 8 -39 7 -92 -2 -75 -5 -97 -15 -95 -8 1 -11 -2 -7 -8 3 -6 10 -8 14 -6 4
3 8 -26 9 -64 1 -61 -1 -68 -16 -64 -14 5 -15 4 -2 -5 8 -5 16 -22 17 -36 2
-24 0 -25 -15 -13 -16 12 -16 11 0 -7 9 -11 16 -34 16 -51 -1 -36 9 -57 23
-49 5 4 9 -1 9 -9 0 -9 8 -17 18 -17 42 -3 47 -5 44 -16 -1 -7 7 -13 18 -13
11 0 20 -7 20 -15 0 -8 3 -14 8 -14 31 5 54 -2 48 -16 -4 -12 3 -15 29 -15 24
0 35 -5 35 -15 0 -13 26 -21 53 -16 5 1 6 -3 2 -9 -3 -6 -12 -7 -18 -4 -7 4
-8 3 -4 -2 9 -9 14 -11 48 -13 11 0 17 -5 14 -11 -3 -5 -2 -10 4 -10 5 0 11 5
13 12 3 7 7 5 11 -6 4 -9 3 -15 -2 -11 -5 3 -12 1 -16 -5 -4 -6 6 -10 24 -10
21 0 31 -5 31 -15 0 -14 17 -20 48 -16 6 1 12 -5 12 -14 0 -14 18 -20 49 -15
12 1 12 -1 3 -12 -9 -11 -7 -14 10 -15 12 -1 25 -8 29 -15 8 -13 12 -14 50
-17 11 0 18 -5 14 -10 -7 -12 7 -21 39 -23 14 -1 26 -8 26 -15 0 -7 7 -13 15
-13 8 0 15 -4 15 -9 0 -5 13 -12 30 -16 26 -6 34 -14 32 -36 -1 -6 8 -7 53
-10 14 -1 28 -6 32 -12 3 -6 1 -7 -5 -3 -7 4 -12 2 -12 -3 0 -6 14 -11 30 -11
20 0 30 -5 30 -15 0 -8 7 -15 15 -15 7 0 19 -8 25 -17 11 -17 11 -17 6 0 -3 9
-1 17 4 17 6 0 10 -7 10 -15 0 -8 7 -16 15 -16 29 -3 33 -4 42 -13 4 -5 3 -6
-4 -2 -6 3 -14 3 -17 -2 -2 -4 7 -9 22 -10 14 -1 30 -9 35 -17 5 -9 22 -15 42
-15 27 0 33 -3 28 -16 -3 -8 -12 -13 -19 -10 -8 3 -13 2 -13 -2 4 -25 -4 -32
-36 -32 -29 0 -35 -4 -36 -22 0 -22 -1 -22 -9 -3 -7 17 -9 17 -9 3 -1 -13 -9
-18 -30 -18 -17 0 -33 -4 -36 -10 -3 -6 1 -7 9 -4 9 3 16 2 16 -3 0 -5 -14
-10 -32 -11 -18 -2 -36 -8 -40 -15 -6 -9 -8 -9 -8 1 0 6 -4 12 -10 12 -5 0 -7
-7 -4 -15 5 -12 -2 -15 -30 -15 -25 0 -36 -4 -36 -15 0 -11 -11 -15 -40 -15
-27 0 -43 -5 -46 -15 -4 -9 -19 -15 -36 -15 -21 0 -29 -4 -25 -13 5 -12 -17
-18 -80 -20 -12 -1 -21 -6 -20 -11 1 -6 -9 -12 -23 -14 -14 -2 -30 -10 -36
-17 -6 -8 -25 -15 -42 -17 -17 -1 -28 -6 -26 -10 3 -4 -1 -8 -8 -8 -9 0 -9 -3
2 -10 11 -7 5 -10 -25 -11 -22 -1 -44 -1 -48 0 -5 1 -6 -3 -2 -9 3 -6 12 -7
18 -4 7 4 8 3 4 -2 -10 -10 -13 -11 -67 -13 -32 -1 -38 -4 -33 -18 5 -12 2
-15 -10 -10 -9 3 -17 2 -17 -3 0 -5 -7 -7 -15 -3 -9 3 -24 -2 -35 -12 -11 -10
-31 -17 -45 -17 -14 0 -25 -5 -25 -10 0 -5 4 -7 9 -3 5 3 12 2 15 -3 2 -4 -12
-9 -32 -10 -50 -3 -74 -11 -67 -23 6 -8 -39 -14 -75 -9 -10 1 -9 -3 5 -14 11
-9 13 -14 5 -11 -9 3 -21 -4 -28 -16 -8 -12 -9 -18 -4 -15 7 4 11 -112 12
-336 1 -189 2 -350 2 -358 1 -8 6 -21 12 -29 8 -12 8 -13 -2 -7 -10 6 -12 -2
-11 -36 1 -23 7 -49 13 -57 9 -12 8 -13 -3 -7 -9 6 -12 5 -9 -5 3 -8 11 -13
17 -11 7 1 10 -2 6 -8 -3 -6 -10 -8 -15 -5 -4 3 -8 -15 -7 -40 0 -30 5 -45 14
-45 16 0 17 -16 1 -26 -7 -4 -8 -3 -4 4 4 7 2 12 -3 12 -15 0 -14 -27 1 -32 9
-3 13 -80 14 -304 6 -705 7 -749 18 -763 8 -11 8 -13 -1 -7 -20 11 -16 -35 4
-49 13 -9 13 -14 3 -20 -9 -5 -11 -4 -6 3 4 7 2 12 -4 12 -15 0 -7 -49 11 -62
12 -8 11 -9 -2 -5 -15 5 -16 -11 -15 -146 1 -108 5 -152 14 -155 7 -2 12 -11
12 -19 0 -12 -3 -13 -13 -5 -10 9 -13 5 -12 -14 0 -14 5 -28 11 -32 7 -4 12
-18 12 -32 0 -44 2 -50 17 -50 8 0 15 -7 15 -15 0 -9 10 -15 26 -15 19 0 25
-4 21 -14 -4 -10 -1 -13 8 -10 7 3 23 -4 34 -15 12 -12 24 -21 27 -21 4 0 13
-8 20 -17 13 -17 14 -17 8 2 -5 19 -5 19 9 3 8 -10 19 -18 26 -18 6 0 11 -9
11 -20 0 -13 7 -20 20 -20 12 0 20 -7 21 -17 0 -15 2 -15 9 2 7 17 9 17 9 3 1
-11 9 -18 21 -18 11 0 20 -4 20 -9 0 -5 14 -14 30 -20 17 -5 30 -15 30 -20 0
-6 9 -11 20 -11 12 0 17 -5 14 -14 -3 -9 1 -13 13 -13 11 1 17 -4 15 -12 -3
-12 -1 -12 14 0 16 12 17 12 11 -3 -5 -13 -1 -18 12 -18 10 0 21 -7 25 -15 3
-8 9 -15 13 -14 23 4 32 -3 27 -19 -5 -16 -5 -16 6 1 6 9 16 15 21 12 5 -4 7
-11 4 -16 -4 -5 1 -9 9 -9 14 0 20 -12 17 -32 0 -5 12 -8 29 -8 20 0 30 -5 30
-15 0 -14 14 -19 50 -16 10 0 11 -1 3 -5 -22 -10 -14 -24 13 -24 20 0 25 -4
20 -16 -4 -11 0 -14 16 -12 13 2 23 -2 23 -9 0 -15 13 -18 23 -7 4 4 1 4 -7
-1 -10 -6 -12 -4 -6 5 6 10 11 10 20 -3 7 -10 17 -17 24 -17 6 0 11 -7 11 -15
0 -9 9 -15 24 -15 14 0 28 -5 32 -12 4 -6 3 -8 -4 -4 -6 3 -14 2 -17 -4 -4 -6
-3 -10 2 -9 27 5 53 -3 53 -16 0 -8 6 -15 13 -15 6 0 29 -16 51 -36 21 -19 44
-33 50 -31 7 3 18 -4 24 -14 7 -10 21 -19 32 -19 12 0 20 -7 20 -16 0 -10 5
-14 15 -10 9 3 24 -3 35 -14 11 -11 25 -20 30 -20 6 0 10 -7 10 -15 0 -10 10
-15 30 -15 20 0 30 -5 30 -15 0 -9 9 -15 25 -15 14 0 28 -7 31 -15 4 -8 15
-15 26 -15 15 0 19 -5 15 -19 -4 -17 0 -19 29 -18 19 1 34 6 34 11 0 4 -7 6
-14 3 -10 -4 -13 -1 -10 8 3 8 9 14 12 13 36 -4 72 4 72 17 0 8 5 15 11 15 5
0 8 -4 4 -9 -3 -5 0 -13 6 -17 7 -4 9 -3 5 4 -8 14 4 21 42 24 17 1 34 8 36
15 3 7 19 13 36 13 18 0 29 4 25 10 -3 6 -2 10 4 10 5 0 12 -6 14 -12 3 -8 6
-5 6 6 1 12 6 16 16 12 8 -3 15 -2 15 3 0 5 12 7 26 5 15 -1 28 3 31 12 3 8
19 14 39 14 24 0 34 5 34 15 0 8 4 15 10 15 5 0 7 -8 4 -17 -5 -17 -5 -17 9 0
8 9 26 17 40 17 13 0 27 7 31 15 3 10 19 15 46 15 25 0 39 4 35 10 -4 6 -12 7
-18 4 -7 -4 -8 -3 -4 2 4 4 22 9 40 10 65 4 84 8 84 21 0 9 -4 10 -14 2 -9 -8
-13 -8 -13 0 0 10 4 12 36 15 6 1 20 8 30 16 10 9 15 10 10 2 -8 -14 28 -12
41 3 5 4 2 5 -4 1 -7 -4 -13 -2 -13 3 0 6 14 11 30 11 22 0 30 5 31 18 0 14 2
14 9 -3 7 -17 9 -17 9 -2 1 20 17 23 24 5 4 -10 6 -10 6 0 1 7 15 12 36 12 24
0 35 5 35 15 0 11 11 15 43 15 31 0 38 3 27 10 -17 11 -18 11 34 15 23 2 43
10 48 19 6 10 23 16 44 16 21 0 33 4 29 10 -3 6 -2 10 4 10 5 0 12 -6 14 -12
4 -9 6 -8 6 2 1 14 19 19 78 23 7 0 10 4 7 9 -3 5 -11 5 -17 2 -7 -4 -8 -3 -4
1 9 10 27 14 83 17 23 1 41 7 41 14 0 6 -9 9 -19 6 -10 -2 -18 0 -18 5 0 5 21
11 46 12 54 2 72 10 53 23 -11 7 -11 9 1 7 8 -1 33 -1 55 0 35 1 38 3 23 15
-16 11 -13 13 22 15 80 3 90 5 90 18 0 8 13 14 30 14 43 2 47 3 57 13 4 5 3 7
-2 3 -6 -3 -17 -1 -25 4 -13 9 -13 10 0 8 47 -5 90 2 90 15 0 8 11 14 27 14
14 0 33 8 41 18 12 16 14 16 9 2 -4 -12 -2 -15 9 -11 7 3 14 8 14 12 0 4 10 8
23 9 43 4 55 8 71 21 9 8 26 14 39 15 15 1 21 7 19 19 -2 13 4 17 27 17 l30 0
-1 -163 c0 -108 -4 -167 -11 -176 -9 -11 -9 -13 -1 -8 9 5 12 -18 12 -83 1
-79 -1 -88 -16 -84 -15 5 -16 5 -1 -5 14 -9 16 -31 15 -143 -1 -86 -5 -132
-12 -131 -6 1 -11 -4 -11 -12 0 -7 5 -11 11 -9 8 3 11 -47 11 -165 0 -93 -3
-167 -7 -165 -4 2 -5 13 -3 24 2 11 0 20 -4 20 -12 0 -9 -244 3 -252 8 -5 7
-8 0 -8 -17 0 -15 -67 2 -74 16 -6 19 -36 4 -36 -5 0 -7 7 -4 15 4 8 1 15 -5
15 -6 0 -11 -9 -11 -20 0 -11 6 -20 13 -20 8 0 8 -3 -2 -9 -13 -8 -13 -12 0
-27 8 -10 9 -15 3 -11 -16 9 -16 -65 -1 -75 9 -6 9 -8 0 -8 -7 0 -13 -9 -13
-21 0 -13 4 -18 12 -13 10 6 10 5 1 -7 -8 -9 -12 -66 -12 -167 -1 -124 1 -152
13 -152 8 0 17 -7 20 -16 3 -9 12 -14 19 -11 19 7 60 -12 54 -26 -3 -8 4 -14
17 -15 46 -5 60 -9 64 -20 2 -7 17 -12 32 -12 16 0 32 -4 35 -10 3 -6 -1 -7
-12 -4 -15 5 -16 4 -2 -5 13 -8 46 -17 82 -20 5 -1 5 -5 2 -11 -5 -8 39 -16
68 -11 12 2 8 -17 -5 -22 -7 -3 6 -6 29 -6 25 -1 45 -7 50 -15 4 -8 19 -16 33
-18 14 -2 24 -8 23 -14 -1 -6 12 -11 30 -12 17 0 37 -8 43 -17 7 -9 15 -16 18
-16 34 4 46 -1 46 -19 0 -16 7 -20 30 -20 20 0 30 -5 30 -15 0 -9 6 -15 13
-14 28 4 47 -2 47 -14 0 -7 12 -14 28 -15 46 -4 61 -8 69 -17 4 -4 3 -5 -4 -1
-6 3 -14 3 -17 -2 -2 -4 5 -9 17 -10 47 -5 61 -9 65 -20 2 -7 17 -12 33 -12
17 0 28 -5 27 -12 -3 -12 3 -14 38 -17 8 0 13 -5 9 -10 -3 -5 -1 -13 5 -16 6
-4 9 -1 8 6 -2 6 3 14 10 16 8 3 10 -1 6 -11 -5 -12 0 -16 21 -16 14 0 33 -7
41 -15 9 -8 24 -15 35 -15 10 0 19 -5 19 -11 0 -8 4 -8 13 0 10 8 14 7 14 -4
0 -8 -4 -12 -8 -9 -4 2 -10 0 -14 -6 -4 -6 8 -10 29 -10 19 0 41 -7 50 -15 8
-8 24 -15 36 -15 12 0 18 -4 15 -10 -6 -10 37 -25 67 -22 10 0 21 -4 24 -10 4
-7 2 -8 -4 -4 -7 4 -12 2 -12 -3 0 -6 13 -11 30 -11 17 0 33 -7 39 -17 5 -10
13 -15 17 -11 10 10 46 -11 39 -23 -4 -5 12 -10 34 -10 55 -2 58 -3 68 -13 4
-5 3 -6 -4 -2 -6 3 -14 2 -18 -4 -4 -6 8 -10 30 -10 22 0 38 -6 41 -15 4 -9
19 -15 41 -15 19 0 32 -4 29 -8 -9 -15 10 -31 41 -34 22 -1 29 -6 23 -13 -8
-10 7 -14 58 -18 6 0 12 -6 12 -14 0 -8 13 -13 35 -13 19 0 35 -5 35 -11 0 -6
-7 -8 -16 -5 -9 3 -12 2 -9 -4 4 -6 12 -10 18 -9 45 5 79 -3 84 -20 3 -12 11
-17 23 -14 10 3 27 0 37 -7 17 -11 17 -11 -2 -5 -13 4 -17 3 -10 -4 6 -5 27
-11 47 -13 20 -1 34 -6 32 -10 -3 -5 -11 -5 -17 -2 -7 4 -8 3 -4 -1 4 -5 15
-10 23 -11 31 -5 45 -14 38 -25 -4 -8 -3 -9 5 -5 6 4 9 12 6 17 -4 5 -1 9 4 9
6 0 11 -7 11 -15 0 -11 12 -14 50 -14 30 1 48 6 47 13 -1 6 13 12 31 14 20 2
32 9 32 18 0 13 17 18 46 15 7 -1 14 5 18 14 3 8 15 15 26 15 12 0 28 7 36 15
13 12 56 21 86 16 4 0 5 6 2 14 -5 12 2 15 31 15 28 0 36 3 32 14 -4 9 1 15
11 15 41 1 52 5 52 18 0 8 12 13 30 13 23 0 30 5 30 18 0 14 8 19 33 21 62 4
61 4 41 18 -18 13 -18 14 1 12 39 -4 55 1 55 17 0 8 5 12 10 9 6 -4 7 -11 4
-17 -4 -7 -2 -8 5 -4 6 4 9 12 6 17 -6 8 23 14 53 10 7 -1 11 4 10 11 -2 8 12
15 37 19 23 4 30 7 16 8 -36 2 -20 11 30 17 24 3 49 10 54 16 7 8 6 9 -4 3 -9
-5 -12 -4 -7 3 4 7 21 12 38 12 23 0 29 4 24 15 -4 12 3 15 32 15 20 0 44 5
52 11 13 9 12 10 -2 5 -10 -3 -18 -1 -18 4 0 8 58 15 91 12 3 -1 6 6 6 13 0
11 -4 12 -14 4 -9 -8 -13 -8 -13 -1 0 16 12 21 54 24 25 1 35 6 32 15 -4 9 5
13 30 13 28 0 35 3 30 15 -5 14 15 21 52 16 7 -1 11 4 10 11 -2 8 10 14 35 16
22 2 37 8 37 16 0 7 7 13 15 14 8 1 22 3 30 4 8 1 15 7 15 15 0 8 12 13 30 13
20 0 30 5 30 15 0 8 4 15 10 15 5 0 7 -8 3 -17 -5 -17 -5 -17 8 -1 8 10 29 19
47 20 17 1 32 6 32 11 0 5 -9 5 -20 2 -11 -4 -20 -2 -20 4 0 6 3 10 8 10 24
-4 72 2 68 9 -2 4 0 14 6 22 8 12 9 12 4 -2 -3 -10 -1 -20 4 -23 6 -4 10 3 10
14 0 17 6 21 30 21 18 0 30 5 30 13 0 13 11 17 52 18 10 0 20 4 23 10 4 5 -2
6 -12 2 -13 -4 -15 -3 -8 5 6 6 29 12 52 13 29 2 39 6 33 14 -6 7 -2 11 13 13
41 4 56 8 64 17 4 4 3 5 -4 1 -6 -3 -14 -2 -18 4 -4 6 6 11 24 11 44 2 48 3
58 13 4 5 3 6 -4 2 -6 -3 -14 -3 -17 2 -2 4 7 9 21 10 32 3 45 11 37 24 -4 7
-2 8 5 4 6 -4 9 -12 6 -17 -4 -5 -1 -9 4 -9 6 0 11 7 11 15 0 9 10 15 26 15
21 0 25 4 20 17 -5 15 -4 15 9 -1 13 -17 15 -18 15 -3 0 11 8 17 21 17 14 0
19 5 16 15 -4 8 -1 17 5 21 6 4 8 3 5 -2 -3 -6 -2 -16 2 -22 6 -10 11 -9 22 4
9 12 10 15 2 10 -7 -4 -13 -2 -13 3 0 9 35 16 61 13 4 -1 4 9 1 21 -5 20 -4
20 11 8 15 -12 17 -11 17 3 0 9 -5 16 -11 16 -8 0 -7 5 1 15 7 9 10 19 6 22
-4 4 -11 1 -16 -7 -7 -11 -10 -11 -10 -2 0 7 7 15 15 18 8 4 15 11 15 16 0 6
-7 8 -15 4 -8 -3 -15 -1 -15 4 0 6 7 10 15 10 8 0 15 5 15 11 0 6 -8 8 -17 5
-16 -5 -16 -4 -3 6 17 15 24 78 9 78 -6 0 -8 -4 -4 -9 3 -5 2 -12 -2 -14 -5
-3 -9 107 -9 244 -1 137 2 249 6 249 4 0 6 -11 5 -25 -2 -14 0 -23 4 -20 12 7
6 46 -8 54 -16 10 -9 59 10 73 12 8 11 9 -2 5 -14 -5 -17 2 -16 33 1 24 5 36
11 32 7 -4 7 -1 0 9 -16 21 -18 242 -1 233 9 -5 9 -4 0 7 -10 9 -13 68 -13
219 0 151 -3 210 -12 219 -9 10 -9 12 -1 7 18 -10 16 420 -2 438 -11 11 -6 13
28 14 23 1 49 -3 57 -8 10 -6 11 -10 3 -10 -7 0 -13 -5 -13 -10 0 -6 3 -9 8
-9 4 1 26 1 50 0 30 -1 42 -5 42 -16 0 -10 10 -15 29 -15 37 0 62 -10 55 -21
-4 -8 44 -13 93 -12 7 1 10 -3 7 -8 -3 -5 -17 -7 -32 -3 -21 4 -24 3 -11 -5 9
-6 37 -12 62 -12 25 -1 45 -6 44 -12 -2 -9 6 -11 60 -20 12 -2 26 -7 30 -12 5
-4 3 -5 -4 -1 -6 3 -14 3 -17 -2 -3 -5 0 -9 7 -9 7 -1 33 -2 59 -4 39 -2 45
-4 31 -14 -13 -10 -11 -12 16 -14 60 -3 70 -5 68 -15 -1 -6 9 -12 23 -14 49
-6 70 -13 70 -23 0 -7 -6 -6 -17 2 -9 8 -14 9 -10 2 4 -6 1 -14 -5 -17 -9 -4
-8 -5 2 -5 61 4 90 -2 90 -18 1 -16 2 -16 17 2 13 16 15 17 10 2 -5 -14 0 -17
26 -18 18 -1 35 -1 40 0 12 2 8 -17 -5 -22 -12 -5 74 -12 95 -8 5 1 6 -3 2 -9
-3 -6 -11 -8 -16 -5 -5 4 -9 2 -9 -4 0 -6 14 -9 30 -7 17 2 30 0 30 -4 0 -5
11 -7 24 -6 17 2 23 -1 19 -10 -3 -8 -1 -14 5 -14 6 0 13 6 15 13 4 9 6 9 6 0
1 -7 10 -13 21 -13 11 0 19 -5 18 -11 -2 -7 12 -13 31 -14 20 -1 40 -10 49
-21 10 -13 13 -14 9 -3 -3 9 0 16 8 16 7 0 11 -6 8 -14 -4 -9 5 -13 31 -13 26
0 36 -4 36 -15 0 -13 4 -14 21 -4 15 8 19 8 15 0 -6 -9 28 -17 57 -12 4 0 7
-8 7 -19 0 -16 7 -20 33 -21 17 -1 35 -1 39 -1 3 1 12 -5 18 -13 7 -8 25 -15
41 -15 22 0 27 -4 22 -17 -4 -9 -2 -14 3 -10 6 3 28 1 50 -4 21 -6 44 -11 51
-11 7 -1 10 -5 7 -10 -5 -8 34 -13 66 -8 12 1 11 -2 -3 -12 -15 -11 -12 -13
30 -17 27 -2 55 -4 64 -5 9 0 15 -6 12 -13 -4 -9 6 -13 31 -13 25 0 36 -4 36
-15 0 -11 11 -15 40 -15 27 0 43 -5 46 -15 4 -9 19 -15 39 -15 21 0 35 -6 39
-16 5 -14 4 -15 -9 -4 -13 11 -14 10 -10 -3 4 -9 19 -15 41 -15 26 0 34 4 30
14 -6 16 4 23 37 26 16 1 23 7 20 15 -3 9 4 13 22 13 23 0 26 2 15 15 -11 13
-8 15 19 15 19 0 34 6 37 15 4 8 15 15 25 15 12 0 16 5 13 15 -5 12 2 15 31
15 23 0 34 4 30 11 -4 6 2 13 13 16 11 3 23 11 26 19 3 8 17 14 32 14 20 0 24
3 16 13 -10 12 -1 16 54 20 6 0 11 6 11 14 0 8 -4 10 -12 3 -8 -7 -12 -5 -12
3 0 7 10 14 21 15 11 0 26 8 32 17 6 8 22 15 35 15 14 0 32 9 42 20 10 12 22
18 27 15 6 -3 7 1 4 9 -5 12 1 16 26 16 18 0 29 4 25 10 -4 6 -12 7 -18 4 -7
-4 -8 -3 -4 2 9 9 14 11 47 13 13 1 17 6 14 16 -4 8 -1 15 5 15 6 0 11 -6 12
-12 0 -7 6 0 14 17 11 25 13 27 18 10 4 -17 5 -17 6 -2 1 10 9 17 20 17 10 0
21 7 25 15 3 8 17 15 31 15 18 0 25 5 25 20 0 11 7 21 15 21 29 3 33 4 42 13
4 5 3 6 -4 2 -6 -3 -14 -3 -17 2 -2 4 7 9 22 10 14 1 30 9 35 17 4 8 14 15 21
15 8 0 16 6 19 14 3 8 18 16 34 18 16 2 27 8 25 16 -1 7 10 12 30 12 32 1 32
1 13 16 -14 11 -15 15 -5 14 39 -5 59 0 54 15 -4 8 -2 15 4 15 6 0 13 -6 15
-12 4 -10 6 -10 6 0 1 6 8 12 16 12 8 0 15 7 15 15 0 8 7 15 15 15 13 0 19 12
16 32 0 4 5 5 13 2 8 -3 17 -1 20 4 3 6 15 8 26 5 16 -4 19 -2 14 11 -5 12 0
16 16 16 16 0 20 4 16 16 -3 8 -2 12 3 9 5 -3 12 -1 16 4 3 6 12 8 20 4 10 -3
15 1 15 12 0 11 5 15 15 11 8 -3 15 -1 15 4 0 5 8 7 18 4 14 -5 14 -3 -3 11
-14 12 -16 16 -5 15 33 -5 50 1 50 15 0 8 7 15 15 15 8 0 15 6 16 13 0 6 1 30
2 52 1 22 6 43 12 47 6 5 5 8 -3 8 -19 0 -13 89 7 115 15 18 15 19 -1 7 -15
-12 -17 3 -17 220 0 200 2 230 14 214 13 -18 14 -18 12 2 0 11 -6 20 -12 19
-5 -1 -11 11 -13 27 -3 20 0 26 9 21 8 -6 10 -4 3 6 -14 22 -14 80 -1 73 8 -5
8 -2 0 7 -7 7 -13 19 -13 27 0 12 3 12 18 1 16 -13 16 -13 0 7 -12 13 -18 37
-18 65 1 41 2 43 15 25 8 -11 15 -15 15 -9 0 6 -7 16 -15 23 -19 15 -21 65 -2
54 9 -6 9 -5 0 7 -18 22 -19 563 -1 553 10 -6 11 -4 1 7 -7 7 -13 28 -13 47 0
24 4 31 13 26 10 -6 10 -4 0 7 -7 7 -13 28 -13 47 0 24 3 31 13 26 9 -6 9 -5
0 7 -9 11 -12 91 -12 284 0 149 -1 343 -1 433 0 137 -2 162 -15 162 -8 0 -15
7 -15 15 0 13 -38 22 -72 16 -13 -2 -9 17 5 23 8 4 7 5 -3 5 -52 -4 -80 2 -80
16 0 14 -34 20 -90 17 -11 0 -9 4 5 15 14 10 15 14 5 13 -34 -5 -70 1 -70 11
0 5 5 7 12 3 6 -4 8 -3 5 2 -3 6 -22 11 -43 12 -21 2 -42 9 -48 17 -6 8 -30
16 -53 17 -22 2 -40 5 -38 8 9 14 -15 30 -48 33 -20 2 -40 7 -44 12 -5 4 -3 5
4 1 6 -3 14 -2 18 4 4 6 -11 10 -39 10 -26 0 -46 5 -46 11 0 5 4 8 9 4 5 -3
12 -1 15 3 3 5 -5 9 -17 8 -31 -3 -78 14 -71 25 4 7 -61 15 -89 10 -5 -1 -6 3
-2 9 3 6 12 7 18 4 7 -4 8 -3 4 2 -10 10 -12 11 -64 13 -29 2 -33 4 -19 10 19
7 19 8 1 15 -11 4 -22 2 -27 -6 -6 -10 -8 -10 -8 0 0 6 -6 12 -14 12 -8 0 -16
6 -19 13 -3 7 -24 14 -48 16 -24 1 -48 7 -54 13 -7 7 -2 8 15 4 19 -5 21 -4 9
3 -8 5 -36 11 -62 13 -26 2 -47 6 -47 11 0 4 7 7 15 7 13 0 20 19 16 43 -1 4
4 7 11 6 29 -3 49 2 43 11 -3 6 6 15 20 20 14 5 24 14 21 19 -3 5 0 9 7 8 38
-1 57 5 57 18 0 8 3 14 8 14 31 -5 54 2 48 16 -3 10 1 15 14 16 37 3 41 4 49
17 5 8 20 15 35 15 24 2 25 3 9 15 -15 10 -12 12 20 12 30 0 37 4 37 19 0 13
10 20 31 25 17 3 28 10 25 15 -4 5 4 11 16 13 13 2 22 9 20 16 -1 7 9 12 23
12 14 0 28 7 31 15 4 8 15 15 25 15 11 0 16 5 13 13 -5 13 6 17 49 18 12 0 17
5 13 15 -4 10 2 14 24 14 16 0 33 7 38 16 5 9 21 17 36 17 24 2 25 3 9 15 -14
10 -15 13 -3 12 36 -5 50 1 50 20 0 15 7 20 24 20 14 0 28 5 32 12 4 6 3 8 -4
4 -6 -3 -14 -2 -17 4 -4 6 -3 10 2 9 30 -5 73 3 71 13 -2 7 8 14 22 16 14 2
29 10 33 18 4 8 19 14 32 14 14 0 24 5 23 12 -2 6 6 14 17 16 11 2 25 9 30 16
6 7 18 15 28 19 9 3 17 13 17 21 0 10 6 13 18 10 14 -5 15 -4 2 5 -13 9 -15
93 -15 649 0 477 3 635 11 628 9 -8 9 -13 0 -18 -8 -6 -8 -8 2 -8 6 0 12 -5
12 -11 0 -5 -6 -7 -12 -3 -10 6 -10 4 0 -8 10 -13 10 -17 0 -21 -11 -4 -10 -6
0 -6 8 -1 10 -6 5 -13 -12 -21 -12 -38 0 -38 8 0 7 -3 -1 -9 -11 -7 -11 -9 0
-13 11 -5 13 56 13 338 1 189 -3 344 -7 344 -4 0 -6 -13 -4 -29 2 -17 -2 -32
-8 -34 -7 -3 -11 10 -10 37 2 62 3 66 16 66 9 0 9 -3 0 -12 -7 -7 -12 -16 -12
-22 0 -5 6 -4 13 2 8 9 12 49 12 122 1 99 -1 110 -17 110 -10 0 -18 4 -18 9 0
5 8 8 17 7 15 -1 18 10 19 82 1 54 -3 82 -10 82 -7 0 -7 3 -1 8 16 11 18 64 3
73 -7 5 -8 9 -3 9 6 0 11 25 12 55 3 52 -1 60 -29 56 -4 0 -4 7 -1 16 4 11 8
13 11 5 6 -20 17 -13 18 13 1 14 -2 25 -8 25 -5 0 -6 -4 -3 -10 3 -5 2 -10 -4
-10 -5 0 -11 4 -13 9 -2 5 -10 11 -18 13 -8 2 -19 8 -25 15 -5 7 -22 14 -37
16 -15 1 -31 7 -35 12 -4 4 -2 5 5 1 7 -4 12 -1 12 9 0 9 -6 15 -12 14 -37 -5
-57 2 -51 16 3 9 2 15 -3 14 -31 -5 -63 2 -58 14 3 8 -2 14 -10 14 -8 0 -12
-7 -9 -16 5 -13 3 -12 -8 1 -8 10 -26 19 -42 20 -18 2 -26 7 -23 15 3 7 -2 13
-11 13 -9 0 -22 8 -29 18 -13 16 -14 16 -8 0 3 -10 1 -18 -5 -18 -6 0 -11 7
-11 15 0 8 -3 14 -7 14 -28 -5 -53 3 -53 16 0 11 -11 15 -40 15 -31 0 -38 3
-33 15 3 9 2 15 -3 14 -28 -5 -54 3 -54 16 0 14 -24 20 -59 15 -9 -1 -12 4 -8
14 3 8 2 18 -3 21 -4 3 -11 -1 -13 -7 -4 -10 -6 -10 -6 0 -1 6 -6 12 -12 12
-7 0 -18 8 -25 18 -13 16 -14 16 -8 0 3 -10 1 -18 -5 -18 -6 0 -11 7 -11 15 0
10 -10 15 -30 15 -18 0 -33 6 -36 15 -4 9 -19 15 -35 15 -19 0 -29 5 -29 15 0
9 -6 15 -12 14 -33 -4 -47 2 -42 16 5 12 -2 15 -31 15 -30 0 -36 3 -31 16 4
10 2 14 -6 11 -7 -2 -12 -9 -11 -14 1 -5 -4 -10 -12 -10 -7 0 -11 6 -8 14 3 8
-2 13 -15 13 -11 0 -27 7 -35 15 -8 8 -29 16 -47 17 -29 2 -30 3 -13 16 13 10
14 13 3 12 -38 -5 -91 1 -85 10 3 5 13 6 22 3 10 -4 14 -2 11 7 -2 7 -17 15
-34 17 -53 6 -75 13 -69 23 3 6 -6 10 -21 10 -15 0 -32 7 -38 15 -6 9 -21 17
-34 18 -12 0 -22 6 -22 12 0 9 -21 15 -67 18 -7 0 -13 4 -13 8 0 4 6 10 13 12
6 3 -5 6 -25 6 -44 1 -70 10 -62 22 3 5 -4 9 -15 9 -11 0 -25 8 -31 18 -11 16
-11 16 -6 0 3 -10 1 -18 -4 -18 -6 0 -10 7 -10 15 0 8 -9 15 -21 15 -11 0 -18
4 -14 9 3 5 0 13 -6 17 -7 4 -9 3 -5 -4 3 -6 2 -13 -4 -17 -5 -3 -10 1 -10 9
0 11 -9 16 -30 16 -23 0 -30 4 -30 20 0 16 -7 20 -34 20 -21 0 -36 6 -40 15
-3 9 -18 15 -37 15 -24 0 -30 4 -25 15 4 11 -2 15 -24 16 -43 2 -47 3 -57 13
-4 5 -3 6 4 2 6 -3 14 -3 17 2 2 4 -7 9 -22 10 -43 4 -61 8 -68 15 -4 3 3 4
15 2 12 -2 19 -1 17 3 -3 4 -22 9 -43 10 -21 2 -42 8 -48 14 -7 7 -6 9 2 4 6
-3 14 -3 17 2 3 5 -8 9 -25 10 -54 3 -60 5 -55 19 4 9 -4 13 -24 13 -16 0 -33
7 -38 16 -5 8 -23 16 -40 16 -24 1 -32 6 -32 19 0 10 -8 18 -17 18 -40 1 -51
5 -47 15 3 7 -6 13 -18 14 -42 4 -57 8 -65 17 -4 4 -3 5 4 1 6 -3 14 -3 17 2
2 4 -12 9 -32 10 -20 2 -42 9 -48 17 -6 8 -25 16 -42 17 -18 1 -32 8 -32 15 0
7 -7 13 -16 13 -8 0 -22 7 -30 15 -9 8 -29 15 -45 15 -19 0 -29 5 -29 15 0 10
-11 15 -35 15 -26 0 -33 3 -29 15 5 12 -3 15 -32 16 -22 1 -45 1 -51 0 -16 -2
-17 15 -1 25 7 5 8 3 3 -6 -5 -9 -4 -11 3 -6 21 13 13 23 -20 25 -64 4 -62 3
-45 16 14 10 10 12 -21 13 -20 1 -42 8 -48 17 -6 8 -26 15 -44 15 -24 0 -31 4
-26 15 4 12 -4 15 -37 16 -23 0 -36 3 -29 6 21 8 2 23 -30 23 -21 0 -29 4 -25
13 3 9 -5 14 -26 15 -16 2 -35 9 -41 17 -6 8 -28 15 -48 17 -37 2 -50 12 -25
21 6 2 -4 5 -23 6 -19 1 -41 3 -48 3 -7 1 -11 7 -8 14 6 16 -4 23 -38 26 -17
2 -25 7 -22 15 4 8 -3 13 -18 13 -33 0 -57 10 -50 21 3 5 -11 9 -30 9 -25 0
-36 4 -36 15 0 8 -3 14 -7 14 -28 -5 -53 3 -53 16 0 8 -4 15 -10 15 -5 0 -7
-8 -4 -17 5 -17 5 -17 -6 0 -6 9 -22 17 -35 17 -13 0 -27 4 -30 10 -3 6 1 7 9
4 9 -3 16 -1 16 5 0 6 -3 10 -7 10 -28 -5 -73 3 -73 12 0 5 6 7 13 3 7 -4 8
-3 4 2 -9 9 -13 10 -64 12 -22 1 -33 7 -33 17 0 10 -10 15 -30 15 -23 0 -30 4
-30 20 0 16 -7 20 -30 20 -20 0 -30 5 -30 15 0 14 -24 20 -57 16 -7 -1 -13 5
-13 14 0 10 -10 15 -30 16 -43 2 -47 3 -57 13 -4 5 -3 6 4 2 6 -3 14 -3 17 2
4 7 -22 12 -71 15 -7 0 -13 5 -13 10 0 5 7 6 16 3 8 -3 12 -2 9 4 -3 6 -24 10
-46 10 -29 0 -39 4 -39 16 0 11 -6 15 -20 11 -11 -3 -20 -1 -20 4 0 4 -7 6
-15 2 -10 -3 -15 0 -13 8 2 10 -9 15 -35 17 -29 2 -37 7 -33 18 4 9 -1 14 -14
14 -33 0 -34 0 -56 21 -12 11 -31 21 -43 22 -21 1 -21 2 -5 14 22 16 10 17
-18 2 -15 -8 -19 -8 -14 0 5 7 -3 11 -19 11 -18 0 -25 4 -22 13 3 8 -5 14 -22
15 -14 1 -32 10 -40 20 -13 16 -13 16 -8 0 8 -22 -8 -24 -17 -3 -3 8 -13 15
-22 15 -11 0 -14 5 -10 18 5 14 4 14 -9 -2 -13 -17 -15 -18 -15 -3 0 13 -9 17
-35 17 -24 0 -35 5 -35 15 0 10 -10 15 -30 15 -20 0 -30 5 -30 15 0 9 -6 15
-12 14 -31 -4 -48 2 -48 17 0 8 -5 12 -10 9 -6 -4 -7 -11 -4 -17 4 -7 2 -8 -5
-4 -6 4 -9 12 -6 17 4 5 -11 9 -32 10 -22 0 -32 3 -23 7 30 14 21 32 -18 33
-20 1 -43 1 -49 0 -7 -1 -13 5 -13 14 0 8 -7 15 -15 15 -7 0 -19 8 -25 18 -11
16 -11 16 -6 0 3 -10 1 -18 -4 -18 -6 0 -10 6 -10 13 0 8 -6 14 -12 14 -25 1
-43 8 -54 22 -6 7 -24 14 -41 14 -24 1 -29 5 -21 14 8 10 1 13 -30 13 -35 0
-40 3 -35 18 6 15 5 16 -12 2 -11 -9 -16 -10 -11 -2 5 8 -1 12 -21 13 -15 1
-32 1 -36 0 -5 -1 -6 3 -2 9 3 6 12 7 18 4 9 -5 9 -4 1 5 -6 6 -27 12 -47 13
-20 1 -37 5 -37 10 0 5 5 6 10 3 6 -3 10 -1 10 4 0 6 -12 12 -27 12 -51 2 -56
4 -60 19 -4 13 -3 13 6 0 8 -11 11 -11 11 -2 0 15 -19 23 -55 26 -15 0 -23 6
-21 13 3 8 -8 13 -32 15 -23 2 -36 8 -34 16 2 11 -16 17 -45 13 -7 -1 -13 6
-13 15 0 16 -2 16 -15 -2 -13 -16 -14 -16 -9 -1 5 14 0 17 -26 17 -17 0 -29 4
-25 9 3 5 1 13 -5 16 -6 4 -9 1 -8 -7z m-442 -232 c-7 -7 -13 -7 -20 0 -6 6
-3 10 10 10 13 0 16 -4 10 -10z m2200 -586 c0 -5 -2 -10 -4 -10 -3 0 -8 5 -11
10 -3 6 -1 10 4 10 6 0 11 -4 11 -10z m-5980 -1124 c0 -3 -4 -8 -10 -11 -5 -3
-10 -1 -10 4 0 6 5 11 10 11 6 0 10 -2 10 -4z m10017 -812 c-3 -3 -12 -4 -19
-1 -8 3 -5 6 6 6 11 1 17 -2 13 -5z m-5 -51 c-3 -16 -7 -22 -10 -15 -4 13 4
42 11 42 2 0 2 -12 -1 -27z m1 -69 c-7 -3 -9 -13 -6 -22 4 -14 3 -14 -5 -2
-12 16 -7 30 11 29 9 0 9 -2 0 -5z m-1 -83 c-8 -4 -13 -11 -12 -15 1 -4 -1
-12 -4 -19 -3 -9 -1 26 3 41 1 1 7 2 14 2 9 0 9 -2 -1 -9z m5 -54 c0 -8 -6
-14 -14 -14 -9 0 -10 4 -2 14 6 7 12 13 14 13 1 0 2 -6 2 -13z m-3 -36 c3 -5
0 -11 -7 -14 -8 -3 -14 1 -14 9 0 16 13 19 21 5z m6 -41 c0 -5 -2 -10 -4 -10
-3 0 -8 5 -11 10 -3 6 -1 10 4 10 6 0 11 -4 11 -10z m-5 -70 c1 -10 -3 -21 -9
-23 -9 -4 -13 22 -7 52 2 11 15 -12 16 -29z m0 -50 c-3 -5 -11 -10 -16 -10 -6
0 -7 5 -4 10 3 6 11 10 16 10 6 0 7 -4 4 -10z m-1 -48 c3 -5 -1 -9 -9 -9 -8 0
-12 4 -9 9 3 4 7 8 9 8 2 0 6 -4 9 -8z m0 -31 c3 -5 0 -11 -7 -14 -8 -3 -14 1
-14 9 0 16 13 19 21 5z m-4 -166 c-10 -12 -10 -15 1 -16 10 0 11 -2 1 -6 -6
-2 -9 -10 -5 -16 13 -21 13 -47 0 -47 -8 0 -7 -4 3 -10 11 -7 11 -10 2 -10 -8
0 -10 -5 -5 -12 11 -19 12 -88 1 -88 -5 0 -6 -6 -1 -12 12 -21 12 -108 -1
-108 -6 0 -4 -5 4 -10 11 -7 11 -10 2 -10 -8 0 -10 -5 -5 -12 11 -19 13 -39 2
-32 -5 3 -9 1 -9 -5 0 -5 5 -12 10 -14 6 -3 5 -4 -2 -3 -10 2 -13 49 -14 202
0 206 1 224 18 224 6 0 5 -6 -2 -15z m-10772 -2180 c-3 -3 -9 2 -12 12 -6 14
-5 15 5 6 7 -7 10 -15 7 -18z m10029 -1 c-3 -3 -12 -4 -19 -1 -8 3 -5 6 6 6
11 1 17 -2 13 -5z m-7 -404 c0 -5 -2 -10 -4 -10 -3 0 -8 5 -11 10 -3 6 -1 10
4 10 6 0 11 -4 11 -10z m-10235 -30 c3 -5 -1 -10 -10 -10 -9 0 -13 5 -10 10 3
6 8 10 10 10 2 0 7 -4 10 -10z m10555 -100 c0 -5 -2 -10 -4 -10 -3 0 -8 5 -11
10 -3 6 -1 10 4 10 6 0 11 -4 11 -10z m-10930 -60 c0 -5 -5 -10 -11 -10 -5 0
-7 5 -4 10 3 6 8 10 11 10 2 0 4 -4 4 -10z m-229 -1027 c-12 -20 -14 -14 -5
12 4 9 9 14 11 11 3 -2 0 -13 -6 -23z m39 -1313 c0 -5 -5 -10 -11 -10 -5 0 -7
5 -4 10 3 6 8 10 11 10 2 0 4 -4 4 -10z m-3 -35 c0 -8 -4 -15 -9 -15 -10 0
-11 14 -1 23 9 10 10 9 10 -8z m-2 -109 c0 -46 -2 -87 -5 -89 -4 -5 -5 162 -1
171 5 9 6 -8 6 -82z m5 -176 c0 -5 -4 -10 -10 -10 -5 0 -10 5 -10 10 0 6 5 10
10 10 6 0 10 -4 10 -10z m3410 -266 c0 -8 -19 -13 -24 -6 -3 5 1 9 9 9 8 0 15
-2 15 -3z m4550 -34 c0 -5 -5 -10 -11 -10 -5 0 -7 5 -4 10 3 6 8 10 11 10 2 0
4 -4 4 -10z m0 -40 c0 -5 -2 -10 -4 -10 -3 0 -8 5 -11 10 -3 6 -1 10 4 10 6 0
11 -4 11 -10z m-4900 -46 c0 -8 -19 -13 -24 -6 -3 5 1 9 9 9 8 0 15 -2 15 -3z
m-2433 -99 c0 -8 -4 -12 -9 -9 -5 3 -6 10 -3 15 9 13 12 11 12 -6z m1743 -155
c0 -5 -5 -10 -11 -10 -5 0 -7 5 -4 10 3 6 8 10 11 10 2 0 4 -4 4 -10z m6770 6
c0 -2 -7 -7 -16 -10 -8 -3 -12 -2 -9 4 6 10 25 14 25 6z m-8140 -96 c0 -5 -2
-10 -4 -10 -3 0 -8 5 -11 10 -3 6 -1 10 4 10 6 0 11 -4 11 -10z m100 -70 c0
-5 -2 -10 -4 -10 -3 0 -8 5 -11 10 -3 6 -1 10 4 10 6 0 11 -4 11 -10z m8975
-180 c3 -5 1 -10 -4 -10 -6 0 -11 5 -11 10 0 6 2 10 4 10 3 0 8 -4 11 -10z
m-6551 -430 c-6 -6 -10 -3 -10 10 0 13 4 16 10 10 7 -7 7 -13 0 -20z m3 -40
c1 -11 -2 -22 -6 -24 -6 -4 -7 26 -2 42 3 8 7 -1 8 -18z m0 -60 c1 -11 -2 -22
-6 -24 -6 -4 -7 26 -2 42 3 8 7 -1 8 -18z m3 -84 c0 -3 -4 -8 -10 -11 -5 -3
-10 -1 -10 4 0 6 5 11 10 11 6 0 10 -2 10 -4z m4460 -440 c0 -3 -4 -8 -10 -11
-5 -3 -10 -1 -10 4 0 6 5 11 10 11 6 0 10 -2 10 -4z m-4426 -168 c-3 -4 -9 -8
-15 -8 -5 0 -9 4 -9 8 0 5 7 9 15 9 8 0 12 -4 9 -9z m66 -33 c0 -8 -2 -15 -4
-15 -2 0 -6 7 -10 15 -3 8 -1 15 4 15 6 0 10 -7 10 -15z m685 -323 c-3 -3 -11
0 -18 7 -9 10 -8 11 6 5 10 -3 15 -9 12 -12z"/>
<path d="M5100 11780 c0 -5 7 -7 15 -4 8 4 15 8 15 10 0 2 -7 4 -15 4 -8 0
-15 -4 -15 -10z"/>
<path d="M7685 11720 c3 -5 8 -10 11 -10 2 0 4 5 4 10 0 6 -5 10 -11 10 -5 0
-7 -4 -4 -10z"/>
<path d="M4355 11430 c3 -5 11 -10 16 -10 6 0 7 5 4 10 -3 6 -11 10 -16 10 -6
0 -7 -4 -4 -10z"/>
<path d="M8300 11430 c0 -5 5 -10 11 -10 5 0 7 5 4 10 -3 6 -8 10 -11 10 -2 0
-4 -4 -4 -10z"/>
<path d="M3106 10868 c3 -4 9 -8 15 -8 5 0 9 4 9 8 0 5 -7 9 -15 9 -8 0 -12
-4 -9 -9z"/>
<path d="M2706 10678 c3 -5 10 -6 15 -3 13 9 11 12 -6 12 -8 0 -12 -4 -9 -9z"/>
<path d="M1670 10215 c0 -8 4 -15 8 -15 5 0 9 7 9 15 0 8 -4 15 -9 15 -4 0 -8
-7 -8 -15z"/>
<path d="M11335 10030 c-3 -5 -1 -10 4 -10 6 0 11 5 11 10 0 6 -2 10 -4 10 -3
0 -8 -4 -11 -10z"/>
<path d="M12120 8270 c-10 -6 -11 -10 -2 -10 6 0 12 -5 12 -11 0 -5 -4 -8 -8
-5 -10 6 -9 -75 1 -91 5 -8 3 -13 -5 -13 -10 0 -10 -2 1 -9 7 -5 9 -11 4 -14
-11 -7 -10 -97 0 -114 4 -6 1 -14 -5 -16 -10 -4 -9 -6 1 -6 11 -1 11 -4 0 -18
-12 -14 -12 -15 0 -9 10 7 12 3 6 -13 -3 -11 -3 -21 2 -21 4 0 8 81 8 180 0
99 0 180 0 180 0 0 -7 -5 -15 -10z"/>
<path d="M12116 7898 c3 -5 10 -6 15 -3 13 9 11 12 -6 12 -8 0 -12 -4 -9 -9z"/>
<path d="M12120 7850 c0 -5 5 -10 10 -10 6 0 10 5 10 10 0 6 -4 10 -10 10 -5
0 -10 -4 -10 -10z"/>
<path d="M12116 7818 c3 -5 10 -6 15 -3 13 9 11 12 -6 12 -8 0 -12 -4 -9 -9z"/>
<path d="M12120 7770 c0 -5 5 -10 10 -10 6 0 10 5 10 10 0 6 -4 10 -10 10 -5
0 -10 -4 -10 -10z"/>
<path d="M12116 7738 c3 -5 10 -6 15 -3 13 9 11 12 -6 12 -8 0 -12 -4 -9 -9z"/>
<path d="M12120 7690 c0 -5 5 -10 10 -10 6 0 10 5 10 10 0 6 -4 10 -10 10 -5
0 -10 -4 -10 -10z"/>
<path d="M12116 7658 c3 -5 10 -6 15 -3 13 9 11 12 -6 12 -8 0 -12 -4 -9 -9z"/>
<path d="M12120 7610 c0 -5 5 -10 10 -10 6 0 10 5 10 10 0 6 -4 10 -10 10 -5
0 -10 -4 -10 -10z"/>
<path d="M515 7590 c3 -5 8 -10 11 -10 2 0 4 5 4 10 0 6 -5 10 -11 10 -5 0 -7
-4 -4 -10z"/>
<path d="M12116 7578 c3 -5 10 -6 15 -3 13 9 11 12 -6 12 -8 0 -12 -4 -9 -9z"/>
<path d="M515 7550 c-3 -5 -1 -10 4 -10 6 0 11 5 11 10 0 6 -2 10 -4 10 -3 0
-8 -4 -11 -10z"/>
<path d="M12120 7530 c0 -5 5 -10 10 -10 6 0 10 5 10 10 0 6 -4 10 -10 10 -5
0 -10 -4 -10 -10z"/>
<path d="M515 7510 c3 -5 8 -10 11 -10 2 0 4 5 4 10 0 6 -5 10 -11 10 -5 0 -7
-4 -4 -10z"/>
<path d="M12113 7493 c0 -9 4 -10 14 -2 7 6 13 12 13 14 0 1 -6 2 -13 2 -8 0
-14 -6 -14 -14z"/>
<path d="M12112 7450 c0 -14 2 -19 5 -12 2 6 2 18 0 25 -3 6 -5 1 -5 -13z"/>
<path d="M516 7397 c3 -10 9 -15 12 -12 3 3 0 11 -7 18 -10 9 -11 8 -5 -6z"/>
<path d="M12126 7397 c3 -10 9 -15 12 -12 3 3 0 11 -7 18 -10 9 -11 8 -5 -6z"/>
<path d="M12112 7370 c0 -14 2 -19 5 -12 2 6 2 18 0 25 -3 6 -5 1 -5 -13z"/>
<path d="M12126 7317 c3 -10 9 -15 12 -12 3 3 0 11 -7 18 -10 9 -11 8 -5 -6z"/>
<path d="M12112 7290 c0 -14 2 -19 5 -12 2 6 2 18 0 25 -3 6 -5 1 -5 -13z"/>
<path d="M12126 7237 c3 -10 9 -15 12 -12 3 3 0 11 -7 18 -10 9 -11 8 -5 -6z"/>
<path d="M514 7220 c0 -13 4 -16 10 -10 7 7 7 13 0 20 -6 6 -10 3 -10 -10z"/>
<path d="M12112 7210 c0 -14 2 -19 5 -12 2 6 2 18 0 25 -3 6 -5 1 -5 -13z"/>
<path d="M515 7170 c3 -5 8 -10 11 -10 2 0 4 5 4 10 0 6 -5 10 -11 10 -5 0 -7
-4 -4 -10z"/>
<path d="M605 7110 c-3 -5 -2 -10 4 -10 5 0 13 5 16 10 3 6 2 10 -4 10 -5 0
-13 -4 -16 -10z"/>
<path d="M11120 6550 c-13 -8 -12 -10 3 -10 9 0 17 5 17 10 0 12 -1 12 -20 0z"/>
<path d="M1325 6370 c-3 -5 -1 -10 4 -10 6 0 11 5 11 10 0 6 -2 10 -4 10 -3 0
-8 -4 -11 -10z"/>
<path d="M11610 6226 c0 -2 7 -9 15 -16 13 -11 14 -10 9 4 -5 14 -24 23 -24
12z"/>
<path d="M480 5921 c0 -6 4 -13 10 -16 6 -3 7 1 4 9 -7 18 -14 21 -14 7z"/>
<path d="M510 4960 c0 -5 5 -10 11 -10 5 0 7 5 4 10 -3 6 -8 10 -11 10 -2 0
-4 -4 -4 -10z"/>
<path d="M513 4920 c5 -29 13 -33 13 -5 0 14 -4 25 -8 25 -4 0 -7 -9 -5 -20z"/>
<path d="M513 4840 c1 -21 10 -18 13 5 1 8 -2 15 -6 15 -5 0 -8 -9 -7 -20z"/>
<path d="M12115 4841 c-3 -5 -2 -12 3 -15 5 -3 9 1 9 9 0 17 -3 19 -12 6z"/>
<path d="M513 4765 c0 -8 4 -12 9 -9 5 3 6 10 3 15 -9 13 -12 11 -12 -6z"/>
<path d="M515 4650 c3 -5 8 -10 11 -10 2 0 4 5 4 10 0 6 -5 10 -11 10 -5 0 -7
-4 -4 -10z"/>
<path d="M12110 4386 c0 -2 8 -10 18 -17 15 -13 16 -12 3 4 -13 16 -21 21 -21
13z"/>
<path d="M12120 4290 c-9 -6 -10 -10 -3 -10 6 0 15 5 18 10 8 12 4 12 -15 0z"/>
<path d="M12120 3965 c-7 -9 -11 -17 -9 -20 3 -2 10 5 17 15 14 24 10 26 -8 5z"/>
<path d="M12131 3894 c0 -11 3 -14 6 -6 3 7 2 16 -1 19 -3 4 -6 -2 -5 -13z"/>
<path d="M12119 3868 c-5 -18 -6 -38 -1 -34 7 8 12 36 6 36 -2 0 -4 -1 -5 -2z"/>
<path d="M12113 3730 c0 -23 3 -28 9 -16 5 9 5 23 0 32 -6 12 -9 7 -9 -16z"/>
<path d="M12131 3654 c0 -11 3 -14 6 -6 3 7 2 16 -1 19 -3 4 -6 -2 -5 -13z"/>
<path d="M12125 3589 c-4 -6 -5 -12 -2 -15 2 -3 7 2 10 11 7 17 1 20 -8 4z"/>
<path d="M12110 3551 c0 -6 5 -13 11 -17 8 -4 7 -9 -2 -15 -10 -6 -10 -9 -2
-9 16 0 26 17 13 25 -6 4 -8 11 -5 16 4 5 1 9 -4 9 -6 0 -11 -4 -11 -9z"/>
<path d="M12120 3465 c0 -5 5 -17 10 -25 5 -8 10 -10 10 -5 0 6 -5 17 -10 25
-5 8 -10 11 -10 5z"/>
<path d="M12113 3421 c0 -11 5 -18 9 -15 4 3 5 11 1 19 -7 21 -12 19 -10 -4z"/>
<path d="M540 3389 c0 -5 5 -7 10 -4 6 3 10 8 10 11 0 2 -4 4 -10 4 -5 0 -10
-5 -10 -11z"/>
<path d="M4058 3213 c6 -3 10 -8 8 -12 -3 -4 1 -8 8 -8 22 0 14 23 -8 24 -12
1 -15 -1 -8 -4z"/>
<path d="M8575 3210 c-3 -5 -1 -10 4 -10 6 0 11 5 11 10 0 6 -2 10 -4 10 -3 0
-8 -4 -11 -10z"/>
<path d="M8675 3170 c3 -5 8 -10 11 -10 2 0 4 5 4 10 0 6 -5 10 -11 10 -5 0
-7 -4 -4 -10z"/>
<path d="M3115 2860 c3 -5 8 -10 11 -10 2 0 4 5 4 10 0 6 -5 10 -11 10 -5 0
-7 -4 -4 -10z"/>
<path d="M4075 2830 c-3 -5 -1 -10 4 -10 6 0 11 5 11 10 0 6 -2 10 -4 10 -3 0
-8 -4 -11 -10z"/>
<path d="M4075 2790 c-3 -5 -1 -10 4 -10 6 0 11 5 11 10 0 6 -2 10 -4 10 -3 0
-8 -4 -11 -10z"/>
<path d="M4075 2680 c3 -5 8 -10 11 -10 2 0 4 5 4 10 0 6 -5 10 -11 10 -5 0
-7 -4 -4 -10z"/>
<path d="M10015 2670 c-3 -5 -1 -10 4 -10 6 0 11 5 11 10 0 6 -2 10 -4 10 -3
0 -8 -4 -11 -10z"/>
<path d="M4074 2620 c0 -13 4 -16 10 -10 7 7 7 13 0 20 -6 6 -10 3 -10 -10z"/>
<path d="M4073 2565 c0 -8 4 -12 9 -9 5 3 6 10 3 15 -9 13 -12 11 -12 -6z"/>
<path d="M10345 2550 c3 -5 11 -10 16 -10 6 0 7 5 4 10 -3 6 -11 10 -16 10 -6
0 -7 -4 -4 -10z"/>
<path d="M4073 2525 c0 -8 4 -12 9 -9 4 3 8 9 8 15 0 5 -4 9 -8 9 -5 0 -9 -7
-9 -15z"/>
<path d="M4070 2489 c0 -5 5 -7 10 -4 6 3 10 8 10 11 0 2 -4 4 -10 4 -5 0 -10
-5 -10 -11z"/>
<path d="M10515 2490 c3 -5 8 -10 11 -10 2 0 4 5 4 10 0 6 -5 10 -11 10 -5 0
-7 -4 -4 -10z"/>
<path d="M4079 2338 c-5 -13 -5 -60 0 -63 4 -2 7 12 7 31 0 29 -3 42 -7 32z"/>
<path d="M4074 2170 c-1 -16 1 -30 5 -30 3 0 7 14 7 30 1 17 -1 30 -5 30 -3 0
-7 -13 -7 -30z"/>
<path d="M8550 1841 c0 -6 4 -13 10 -16 6 -3 7 1 4 9 -7 18 -14 21 -14 7z"/>
<path d="M8553 1790 c-1 -11 2 -20 7 -20 4 0 7 7 6 15 -3 23 -12 26 -13 5z"/>
<path d="M8559 1758 c-5 -18 -6 -38 -1 -34 7 8 12 36 6 36 -2 0 -4 -1 -5 -2z"/>
<path d="M8550 1701 c0 -6 4 -12 8 -15 5 -3 9 1 9 9 0 8 -4 15 -9 15 -4 0 -8
-4 -8 -9z"/>
<path d="M8554 1596 c1 -8 5 -18 8 -22 4 -3 5 1 4 10 -1 8 -5 18 -8 22 -4 3
-5 -1 -4 -10z"/>
<path d="M8553 1545 c0 -8 4 -12 9 -9 4 3 8 9 8 15 0 5 -4 9 -8 9 -5 0 -9 -7
-9 -15z"/>
<path d="M4510 1050 c0 -5 5 -10 10 -10 6 0 10 5 10 10 0 6 -4 10 -10 10 -5 0
-10 -4 -10 -10z"/>
<path d="M5793 455 c0 -8 4 -15 9 -15 4 0 8 4 8 9 0 6 -4 12 -8 15 -5 3 -9 -1
-9 -9z"/>
<path d="M6070 330 c0 -5 5 -10 10 -10 6 0 10 5 10 10 0 6 -4 10 -10 10 -5 0
-10 -4 -10 -10z"/>
</g>
</svg>
